<svg xmlns="http://www.w3.org/2000/svg" viewBox="0 0 1024 1024"><defs><style>.cls-1{fill:#5c5c5c;stroke:#5c5c5c;stroke-miterlimit:10;stroke-width:10px;}</style></defs><title>Raqash Icon</title><g id="Layer_10" data-name="Layer 10"><path class="cls-1" d="M717.81,334.33H580.2V310.05a24,24,0,0,0-23.92-24H460.5a24,24,0,0,0-23.92,24v24.28H299a12.05,12.05,0,0,0,0,24.1H321.3l15.23,396.39a44.85,44.85,0,0,0,45,43.27h253.8a44.85,44.85,0,0,0,45-43.27l15.23-396.39h22.33a12.05,12.05,0,1,0,0-24.1ZM460.68,310.19h95.43v24.14H460.68ZM656.18,753.9A20.84,20.84,0,0,1,635.29,774H381.49a20.82,20.82,0,0,1-20.88-20.09L345.42,358.43h326Z"/><path class="cls-1" d="M435,467.66a12.05,12.05,0,0,0-12-11.82h-.24a12,12,0,0,0-11.81,12.27l3.78,196.64a12.05,12.05,0,0,0,12,11.82H427A12,12,0,0,0,438.8,664.3Z"/><path class="cls-1" d="M508.39,455.84a12.06,12.06,0,0,0-12.05,12.05V664.53a12,12,0,0,0,24.1,0V467.89A12.06,12.06,0,0,0,508.39,455.84Z"/><path class="cls-1" d="M594,455.85a12,12,0,0,0-12.28,11.81L578,664.3a12,12,0,0,0,11.81,12.27H590a12.06,12.06,0,0,0,12-11.82l3.78-196.64A12,12,0,0,0,594,455.85Z"/></g></svg>