<svg xmlns="http://www.w3.org/2000/svg" viewBox="0 0 1024 1024"><defs><style>.cls-1{fill:#5c5c5c;stroke:#5c5c5c;stroke-miterlimit:10;stroke-width:5px;}</style></defs><title>Raqash Icon</title><g id="Layer_11" data-name="Layer 11"><path class="cls-1" d="M722.13,311.49a116.86,116.86,0,0,0-165.39,0L253.51,614.61a15.16,15.16,0,0,0-4.29,8.69L226.76,789.7a15.09,15.09,0,0,0,4.29,12.76A15.42,15.42,0,0,0,241.77,807a11.47,11.47,0,0,0,2-.12l100.25-13.54A15.27,15.27,0,1,0,340,763.06L259.61,773.9l15.69-116L397.45,780a15.41,15.41,0,0,0,10.72,4.51A15,15,0,0,0,418.9,780L722.13,476.88a116.81,116.81,0,0,0,0-165.39ZM562.61,348.75l50.91,50.91L336.83,676.36l-50.92-50.91Zm-154.32,399L358.5,697.92,635.2,421.23,685,471ZM706.21,449.22,584.4,327.41A86.53,86.53,0,0,1,706.21,449.22Z"/></g></svg>