<svg xmlns="http://www.w3.org/2000/svg" viewBox="0 0 1024 1024"><defs><style>.cls-1{fill:#5c5c5c;stroke:#5c5c5c;stroke-miterlimit:10;stroke-width:15px;}</style></defs><title>Raqash Icon</title><g id="Layer_4" data-name="Layer 4"><path class="cls-1" d="M841.25,447.88a26.84,26.84,0,0,0-23.37-18.69L609.07,409.82l-41.4-96.12a10,10,0,1,0-18.37,7.92L593,423.19a10,10,0,0,0,8.26,6L816,449.11a7.21,7.21,0,0,1,4.09,12.59L658.11,604a10,10,0,0,0-3.16,9.72l47.42,210.37a7.21,7.21,0,0,1-10.71,7.78L506.23,721.8a10,10,0,0,0-10.21,0L310.59,831.9a7.21,7.21,0,0,1-10.71-7.78l24.48-108.59a10,10,0,0,0-19.52-4.4L280.36,819.72a27.22,27.22,0,0,0,40.44,29.39L501.12,742,681.45,849.11a26.85,26.85,0,0,0,29.88-1.39,26.84,26.84,0,0,0,10.55-28L675.77,615.14,833.33,476.73A26.85,26.85,0,0,0,841.25,447.88Z"/><path class="cls-1" d="M549.28,260l-23.16-53.8a27.21,27.21,0,0,0-50,0L393.18,398.83,184.37,418.19a27.21,27.21,0,0,0-15.45,47.54L326.47,604.14l-12,53.22a10,10,0,0,0,7.56,12,10.46,10.46,0,0,0,2.21.24,10,10,0,0,0,9.75-7.8l13.3-59a10,10,0,0,0-3.16-9.71l-162-142.33a7.21,7.21,0,0,1,4.09-12.59L401,418.2a10,10,0,0,0,8.26-6l85.3-198.06a7.2,7.2,0,0,1,13.23,0l23.17,53.8A10,10,0,0,0,549.28,260Z"/></g></svg>