<svg xmlns="http://www.w3.org/2000/svg" viewBox="0 0 1024 1024"><defs><style>.cls-1{fill:#5c5c5c;stroke:#5c5c5c;stroke-miterlimit:10;stroke-width:10px;}</style></defs><title>Raqash Icon</title><g id="Layer_8" data-name="Layer 8"><path class="cls-1" d="M371.85,516.14a13.8,13.8,0,1,0,13.8,13.8A13.81,13.81,0,0,0,371.85,516.14Z"/><path class="cls-1" d="M882.43,488.54a55.27,55.27,0,0,0-55.2-55.2h-103c15.95-40.85,22.4-88.93,21.16-131.73a155.67,155.67,0,0,0-1-15.87A55.19,55.19,0,0,0,634,287.07v13.8C634,388.14,522,437.18,437.39,458.21a41.45,41.45,0,0,0-37.94-24.87h-138a13.8,13.8,0,0,0-13.8,13.8V778.33a13.8,13.8,0,0,0,13.8,13.8h138a41.44,41.44,0,0,0,37.81-24.58q10.51,2.7,19.51,5.06C505,785.2,531.49,792.13,596,792.13h148.4a55.17,55.17,0,0,0,45.85-85.89A55.36,55.36,0,0,0,818,623.41a55.18,55.18,0,0,0,27.5-82.76A55.21,55.21,0,0,0,882.43,488.54ZM413.25,750.73a13.81,13.81,0,0,1-13.8,13.8H275.26V460.94H399.45a13.81,13.81,0,0,1,13.8,13.8Zm414-234.59h-69a13.8,13.8,0,1,0,0,27.6h41.39a27.6,27.6,0,0,1,0,55.2h-69a13.8,13.8,0,0,0,0,27.6H772a27.6,27.6,0,0,1,0,55.19H703a13.8,13.8,0,1,0,0,27.6h41.4a27.6,27.6,0,1,1,0,55.2H596c-61,0-84.83-6.22-132.3-18.62q-10.42-2.73-22.89-5.93V485.82C540.71,462,661.64,404,661.64,300.87v-13.8a27.6,27.6,0,0,1,55.2,0v0c0,6,7.48,79.6-22.53,146.27H647.84a13.8,13.8,0,0,0,0,27.6H827.23a27.6,27.6,0,1,1,0,55.2Z"/><path class="cls-1" d="M371.85,571.34a13.8,13.8,0,0,0-13.8,13.8V695.53a13.8,13.8,0,1,0,27.6,0V585.14A13.8,13.8,0,0,0,371.85,571.34Z"/></g></svg>