<svg xmlns="http://www.w3.org/2000/svg" viewBox="0 0 1024 1024"><defs><style>.cls-1{fill:#5c5c5c;stroke:#5c5c5c;stroke-miterlimit:10;stroke-width:10px;}</style></defs><title>Raqash Icon</title><g id="Layer_2" data-name="Layer 2"><path class="cls-1" d="M566.55,757.45c-108.7,44-227.11,39.2-332.49-11.85,108.32-8,173.68-63.47,176.86-66.22a15.25,15.25,0,0,0-9.47-26.77c-43-1.46-77.6-17.62-103-48.05A148,148,0,0,1,281,578.1,239.47,239.47,0,0,0,330,572.88a15.25,15.25,0,0,0,.11-29.65c-83.49-20.45-104.12-78.65-109-111.72a153.43,153.43,0,0,0,50.9,9.36,15.25,15.25,0,0,0,9.05-27.28C204,353.58,217.34,283,230,249.52a478.87,478.87,0,0,0,34.74,33.06,15.25,15.25,0,1,0,19.94-23.07,419.71,419.71,0,0,1-46.94-47.1A15.24,15.24,0,0,0,213,214.22c-.79,1.28-19.41,32-22.66,74.82-2.3,30.18,2.9,70.84,33.75,110.77a97.06,97.06,0,0,1-11.43-6.07,15.25,15.25,0,0,0-23.24,11.74c-.11,1.37-2.52,33.88,12.76,70.67a154.07,154.07,0,0,0,58.72,70.57c-.53,0-1.05-.1-1.58-.16A15.26,15.26,0,0,0,243,565.69c.31,1.17,8,29,31.15,57.29a160.92,160.92,0,0,0,85.1,54.31c-35.48,19.71-99.08,45.1-182.4,37.29A15.25,15.25,0,0,0,167,742.5c76.11,50,161.21,75.47,246.72,75.47A437.1,437.1,0,0,0,578,785.72a15.25,15.25,0,1,0-11.43-28.27Z"/><path class="cls-1" d="M936.93,256.1a15.25,15.25,0,0,0-17.38-3.64c-8.86,3.9-17.48,7.11-25.59,9.76C919,232,921.1,208.5,921.27,205a15.24,15.24,0,0,0-24-13.21C867.09,213,828.65,223.12,812,225.92a166.88,166.88,0,0,0-116.75-47c-92.94,0-168.55,75.62-168.55,168.56a170.35,170.35,0,0,0,1.1,19.29c-53.56,1-107.76-20.88-145.26-40.52a15.25,15.25,0,0,0-14.15,27c45,23.57,112.64,50.13,178.91,42.77a15.25,15.25,0,0,0,13.2-18.47,138.87,138.87,0,0,1-3.3-30.1c0-76.13,61.93-138.06,138-138.06a136.85,136.85,0,0,1,100.13,43,15.19,15.19,0,0,0,12.29,4.69c10.09-.63,36.71-5.84,65.34-17.78-8.64,11.17-21.44,24.07-40.38,37.44a15.25,15.25,0,0,0,9.94,27.66c1.08-.08,17.82-1.42,41.94-7.7a239.65,239.65,0,0,1-44.27,37.94,15.25,15.25,0,0,0-6.94,12.79c0,140.65-60.11,268.54-164.93,350.89a15.25,15.25,0,0,0,18.85,24A458.75,458.75,0,0,0,815,564.06c31.23-63.83,47.6-133.91,48.7-208.44,30.5-21.48,59.53-52.91,75.34-81.9A15.25,15.25,0,0,0,936.93,256.1Z"/><path class="cls-1" d="M620,731.31h0a15.25,15.25,0,1,0,20.66,6.2A15.24,15.24,0,0,0,620,731.31Z"/><path class="cls-1" d="M314.4,320.8a15.25,15.25,0,1,0,17.36-25.07h0A15.25,15.25,0,0,0,314.4,320.8Z"/></g></svg>