<svg xmlns="http://www.w3.org/2000/svg" viewBox="0 0 1024 1024"><defs><style>.cls-1{fill:#fff;stroke:#fff;stroke-miterlimit:10;stroke-width:10px;}</style></defs><title>Raqash Icon</title><g id="Layer_23" data-name="Layer 23"><path class="cls-1" d="M722.55,507.86a13.8,13.8,0,1,0-13.8-13.8A13.8,13.8,0,0,0,722.55,507.86Z"/><path class="cls-1" d="M212,535.46a55.26,55.26,0,0,0,55.19,55.2h103c-15.95,40.85-22.4,88.93-21.16,131.73a155.67,155.67,0,0,0,1,15.87,55.19,55.19,0,0,0,110.36-1.33v-13.8c0-87.27,112.07-136.31,196.64-157.34a41.47,41.47,0,0,0,38,24.87h138a13.8,13.8,0,0,0,13.8-13.8V245.67a13.8,13.8,0,0,0-13.8-13.8H695a41.46,41.46,0,0,0-37.82,24.58q-10.5-2.7-19.5-5.06c-48.18-12.59-74.72-19.52-139.27-19.52H350a55.16,55.16,0,0,0-45.85,85.89,55.36,55.36,0,0,0-27.71,82.83,55.18,55.18,0,0,0-27.49,82.76A55.21,55.21,0,0,0,212,535.46ZM681.15,273.27a13.81,13.81,0,0,1,13.8-13.8H819.14V563.06H695a13.81,13.81,0,0,1-13.8-13.8Zm-414,234.59h69a13.8,13.8,0,0,0,0-27.6h-41.4a27.6,27.6,0,1,1,0-55.2h69a13.8,13.8,0,0,0,0-27.6h-41.4a27.6,27.6,0,1,1,0-55.19h69a13.8,13.8,0,0,0,0-27.6H350a27.6,27.6,0,1,1,0-55.2h148.4c61,0,84.83,6.22,132.29,18.62q10.44,2.73,22.9,5.93V538.18C553.68,562,432.76,620,432.76,723.13v13.8a27.6,27.6,0,0,1-55.2,0v0c0-6-7.48-79.6,22.53-146.27h46.47a13.8,13.8,0,1,0,0-27.6H267.16a27.6,27.6,0,0,1,0-55.2Z"/><path class="cls-1" d="M722.55,452.66a13.79,13.79,0,0,0,13.79-13.8V328.47a13.8,13.8,0,1,0-27.59,0V438.86A13.8,13.8,0,0,0,722.55,452.66Z"/></g></svg>