<svg xmlns="http://www.w3.org/2000/svg" viewBox="0 0 1024 1024"><defs><style>.cls-1{fill:#5c5c5c;stroke:#5c5c5c;stroke-miterlimit:10;stroke-width:15px;}</style></defs><title>Raqash Icon</title><g id="Layer_5" data-name="Layer 5"><path class="cls-1" d="M672.05,814.44,500.27,687.34a14.7,14.7,0,0,0-17.48,0L311,814.44V274.64h361Z"/><path class="cls-1" d="M686.65,245.43H296.4A14.6,14.6,0,0,0,281.8,260V806.92A29.19,29.19,0,0,0,328,830.66l163.5-117.21L655,830.65a29.2,29.2,0,0,0,46.22-23.73V260A14.61,14.61,0,0,0,686.65,245.43Zm-14.6,561.48L500,683.61a14.58,14.58,0,0,0-17,0L311,806.92V274.64h361Z"/></g></svg>