<svg xmlns="http://www.w3.org/2000/svg" viewBox="0 0 1024 1024"><defs><style>.cls-1{fill:#fff;stroke:#fff;stroke-miterlimit:10;stroke-width:10px;}</style></defs><title>Raqash Icon</title><g id="Layer_22" data-name="Layer 22"><path class="cls-1" d="M338.84,516.14a13.8,13.8,0,1,0,13.8,13.8A13.81,13.81,0,0,0,338.84,516.14Z"/><path class="cls-1" d="M849.42,488.54a55.27,55.27,0,0,0-55.2-55.2h-103c15.95-40.85,22.4-88.93,21.16-131.73a155.67,155.67,0,0,0-1-15.87A55.19,55.19,0,0,0,601,287.07v13.8C601,388.14,489,437.18,404.38,458.21a41.45,41.45,0,0,0-37.94-24.87h-138a13.8,13.8,0,0,0-13.8,13.8V778.33a13.8,13.8,0,0,0,13.8,13.8h138a41.44,41.44,0,0,0,37.81-24.58q10.51,2.7,19.51,5.06c48.18,12.59,74.72,19.52,139.27,19.52h148.4a55.17,55.17,0,0,0,45.85-85.89A55.36,55.36,0,0,0,785,623.41a55.18,55.18,0,0,0,27.5-82.76A55.21,55.21,0,0,0,849.42,488.54ZM380.24,750.73a13.81,13.81,0,0,1-13.8,13.8H242.25V460.94H366.44a13.81,13.81,0,0,1,13.8,13.8Zm414-234.59h-69a13.8,13.8,0,0,0,0,27.6h41.39a27.6,27.6,0,0,1,0,55.2h-69a13.8,13.8,0,1,0,0,27.6H739a27.6,27.6,0,0,1,0,55.19H670a13.8,13.8,0,1,0,0,27.6h41.4a27.6,27.6,0,1,1,0,55.2H563c-61,0-84.83-6.22-132.3-18.62q-10.43-2.73-22.89-5.93V485.82C507.7,462,628.63,404,628.63,300.87v-13.8a27.6,27.6,0,0,1,55.2,0v0c0,6,7.48,79.6-22.53,146.27H614.83a13.8,13.8,0,0,0,0,27.6H794.22a27.6,27.6,0,1,1,0,55.2Z"/><path class="cls-1" d="M338.84,571.34a13.8,13.8,0,0,0-13.8,13.8V695.53a13.8,13.8,0,0,0,27.6,0V585.14A13.8,13.8,0,0,0,338.84,571.34Z"/></g></svg>