<svg xmlns="http://www.w3.org/2000/svg" viewBox="0 0 1024 1024"><defs><style>.cls-1{fill:#5c5c5c;stroke:#5c5c5c;stroke-miterlimit:10;stroke-width:5px;}</style></defs><title>Raqash Icon</title><g id="Layer_19" data-name="Layer 19"><path class="cls-1" d="M767.87,266.88C713,187.48,626.07,141.94,529.35,141.94S345.69,187.48,290.84,266.88c-54.59,79-67.2,179-33.79,267.36,8.94,24.13,23.14,47.57,42.12,69.54l211.06,247.9a25.09,25.09,0,0,0,38.25,0l211-247.84c19.06-22.09,33.25-45.51,42.11-69.44C835.06,445.88,822.46,345.87,767.87,266.88ZM754.54,516.8c-6.84,18.47-18,36.72-33.14,54.29a.49.49,0,0,0-.12.13L529.35,796.65l-192-225.57c-15.14-17.55-26.3-35.8-33.2-54.45C276.48,443.56,287,360.87,332.17,295.45c45.34-65.63,117.22-103.26,197.18-103.26s151.84,37.63,197.18,103.26C771.74,360.87,782.23,443.56,754.54,516.8Z"/><path class="cls-1" d="M529.35,291c-77.58,0-140.7,63.12-140.7,140.71s63.12,140.7,140.7,140.7,140.71-63.12,140.71-140.7S606.93,291,529.35,291Zm0,231.16a90.46,90.46,0,1,1,90.46-90.45A90.56,90.56,0,0,1,529.35,522.17Z"/></g></svg>