<svg xmlns="http://www.w3.org/2000/svg" viewBox="0 0 1024 1024"><defs><style>.cls-1{fill:#5c5c5c;stroke:#5c5c5c;stroke-miterlimit:10;stroke-width:24px;}</style></defs><title>Raqash Icon</title><g id="Layer_21" data-name="Layer 21"><path class="cls-1" d="M896.54,191.62H144.33a41.79,41.79,0,0,0-41.79,41.78V790.6a41.79,41.79,0,0,0,41.79,41.78H896.54a41.78,41.78,0,0,0,41.79-41.78V233.4A41.79,41.79,0,0,0,896.54,191.62Zm13.93,599a13.93,13.93,0,0,1-13.93,13.93H144.33A13.93,13.93,0,0,1,130.4,790.6V233.4a13.93,13.93,0,0,1,13.93-13.92H896.54a13.92,13.92,0,0,1,13.93,13.92V790.6Z"/><path class="cls-1" d="M833.4,275a12.52,12.52,0,0,0-9.11,2.88L536.58,519.55a24.94,24.94,0,0,1-32.1,0L216.78,277.87a12.47,12.47,0,0,0-16,19.1L488.45,538.65a49.82,49.82,0,0,0,64.17,0L840.33,297a12.48,12.48,0,0,0-6.93-22Z"/><path class="cls-1" d="M386.26,536.93a12.47,12.47,0,0,0-12,3.88L199.64,727.87a12.47,12.47,0,1,0,18.23,17l174.6-187.06a12.48,12.48,0,0,0-6.21-20.89Z"/><path class="cls-1" d="M666.83,540.81a12.47,12.47,0,1,0-18.23,17L823.2,744.88a12.47,12.47,0,0,0,18.23-17Z"/></g></svg>