<svg xmlns="http://www.w3.org/2000/svg" viewBox="0 0 1024 1024"><defs><style>.cls-1{fill:#5c5c5c;}</style></defs><title>Raqash Icon</title><g id="Layer_14" data-name="Layer 14"><path class="cls-1" d="M664.72,586.42c-45.3,0-85.22,22.37-110.16,56.36L429.92,580.45c3.86-12.65,6.55-25.79,6.55-39.68s-2.69-27-6.55-39.67l124.64-62.33c24.94,34,64.86,56.35,110.16,56.35,75.52,0,136.95-61.43,136.95-136.94s-61.43-137-136.95-137-137,61.43-137,137c0,13.88,2.7,27,6.56,39.66L409.69,460.18c-24.94-34-64.87-56.35-110.17-56.35-75.51,0-136.94,61.43-136.94,137S224,677.72,299.52,677.72c45.31,0,85.23-22.36,110.17-56.35l124.63,62.34c-3.86,12.63-6.55,25.78-6.55,39.67,0,75.51,61.43,136.94,137,136.94s136.95-61.43,136.95-136.94-61.43-137-136.95-137Zm0-319.54a91.3,91.3,0,1,1-91.3,91.3A91.41,91.41,0,0,1,664.72,266.88ZM299.52,632.07a91.3,91.3,0,1,1,91.3-91.29A91.39,91.39,0,0,1,299.52,632.07Zm365.2,182.6a91.3,91.3,0,1,1,91.3-91.3A91.41,91.41,0,0,1,664.72,814.67Z"/></g></svg>